<?xml version="1.0" encoding="UTF-8" standalone="no"?>
<!-- Created with Inkscape (http://www.inkscape.org/) -->

<svg
   width="402"
   height="494.5"
   viewBox="0 0 106.3625 130.83646"
   version="1.1"
   id="svg5"
   xml:space="preserve"
   sodipodi:docname="Bangladesh_Police_Insignia_Patch.svg"
   inkscape:version="1.3 (0e150ed6c4, 2023-07-21)"
   xmlns:inkscape="http://www.inkscape.org/namespaces/inkscape"
   xmlns:sodipodi="http://sodipodi.sourceforge.net/DTD/sodipodi-0.dtd"
   xmlns="http://www.w3.org/2000/svg"
   xmlns:svg="http://www.w3.org/2000/svg"
   xmlns:rdf="http://www.w3.org/1999/02/22-rdf-syntax-ns#"
   xmlns:cc="http://creativecommons.org/ns#"
   xmlns:dc="http://purl.org/dc/elements/1.1/"><sodipodi:namedview
     id="namedview1"
     pagecolor="#ffffff"
     bordercolor="#000000"
     borderopacity="0.25"
     inkscape:showpageshadow="2"
     inkscape:pageopacity="0.0"
     inkscape:pagecheckerboard="0"
     inkscape:deskcolor="#d1d1d1"
     showguides="true"
     inkscape:zoom="2"
     inkscape:cx="200"
     inkscape:cy="247.25"
     inkscape:window-width="1920"
     inkscape:window-height="1009"
     inkscape:window-x="-8"
     inkscape:window-y="-8"
     inkscape:window-maximized="1"
     inkscape:current-layer="svg5"><sodipodi:guide
       position="14.627679,75.73887"
       orientation="1,0"
       id="guide1"
       inkscape:locked="false" /><sodipodi:guide
       position="91.991845,71.675626"
       orientation="1,0"
       id="guide2"
       inkscape:locked="false" /><sodipodi:guide
       position="127.42333,105.15676"
       orientation="0,-1"
       id="guide3"
       inkscape:locked="false" /><sodipodi:guide
       position="126.28562,26.004762"
       orientation="0,-1"
       id="guide4"
       inkscape:locked="false" /></sodipodi:namedview><title
     id="title6600">Bangladesh Police - বাংলাদেশ পুলিশ</title><defs
     id="defs2" /><g
     id="layer1"
     transform="translate(19.226393,108.70729)"><g
       id="g6596"
       transform="matrix(0.4,0,0,0.4,-11.271252,-64.949613)"><g
         id="g6590"><path
           id="path13318"
           style="fill:#04014b;fill-opacity:1;stroke:#b2b1b4;stroke-width:8.60831;stroke-linecap:butt;stroke-linejoin:miter;stroke-miterlimit:4;stroke-dasharray:none;stroke-opacity:1"
           d="m 113.06527,-103.50366 c -27.556788,18.722954 -58.380557,27.223131 -95.839083,14.963202 -1.209904,-0.395993 -2.910586,-0.0022 -3.806325,0.902504 l -24.292015,24.533468 c -2.982595,3.012263 -4.632726,8.803802 -3.732706,12.94619 15.7154522,72.331507 12.1119975,108.659771 3.169313,159.855486 -9.137176,52.30922 21.1476416,79.70097 69.09869,86.18491 19.96651,2.69988 37.245269,10.43468 55.402126,16.58369 18.15687,-6.14901 35.43564,-13.88381 55.40214,-16.58369 47.95105,-6.48394 78.23588,-33.87569 69.09869,-86.18491 -8.9427,-51.195715 -12.54616,-87.523979 3.16932,-159.855486 0.89999,-4.142388 -0.75011,-9.933927 -3.73271,-12.94619 l -24.29204,-24.533468 c -0.89572,-0.90462 -2.5964,-1.298495 -3.8063,-0.902504 -37.45855,12.259929 -68.2823,3.759752 -95.8391,-14.963202 z" /><path
           id="path8278"
           style="fill:none;stroke:#ffffff;stroke-width:0.987283;stroke-linecap:butt;stroke-linejoin:miter;stroke-miterlimit:4;stroke-dasharray:7.89829, 0.987283;stroke-dashoffset:6.81229;stroke-opacity:1"
           d="m 113.06535,-101.82046 c -27.159614,18.515578 -57.539137,26.921603 -94.457786,14.797468 -1.192455,-0.391606 -2.868627,-0.0021 -3.751462,0.892508 l -23.9418894,24.261733 c -2.9396126,2.9789 -4.5659746,8.70629 -3.6789356,12.802796 15.4889598,71.53035 11.93745153,107.456242 3.1236674,158.084905 -9.0055254,51.72983 20.8428296,78.81817 68.1027946,85.23032 19.678728,2.66995 36.708454,10.31909 54.603611,16.39999 17.89518,-6.0809 34.92492,-13.73004 54.60365,-16.39999 47.25996,-6.41215 77.10831,-33.50049 68.10279,-85.23032 -8.81382,-50.628653 -12.36533,-86.554555 3.12366,-158.084905 0.88701,-4.096506 -0.73931,-9.823896 -3.67892,-12.802796 l -23.94192,-24.261733 c -0.88282,-0.8946 -2.55897,-1.284112 -3.75145,-0.892508 -36.91867,12.124135 -67.29817,3.71811 -94.45781,-14.797468 z" /></g></g></g><metadata
     id="metadata6598"><rdf:RDF><cc:Work
         rdf:about=""><dc:title>Bangladesh Police - বাংলাদেশ পুলিশ</dc:title></cc:Work></rdf:RDF></metadata><path
     style="fill:#ffffff;fill-opacity:1;stroke-width:0.0828188"
     d="m 49.592639,101.60998 c -2.06389,-0.1034 -5.049147,-0.3827 -7.039609,-0.65861 -3.163318,-0.43849 -8.987551,-1.459752 -10.849278,-1.902392 -1.891245,-0.44964 -2.00517,-0.49977 -2.152779,-0.94704 -0.105693,-0.32023 -0.05255,-0.59539 0.220513,-1.14177 0.146342,-0.29282 0.176414,-0.43394 0.116378,-0.54612 -0.11926,-0.222833 -2.97811,-1.370587 -4.726807,-1.897701 -2.852011,-0.859675 -4.216196,-1.160787 -9.549328,-2.107809 -0.583212,-0.10357 -1.063878,-0.225569 -1.068148,-0.271117 -0.0042,-0.04552 0.621978,-0.316295 1.391661,-0.601659 0.769682,-0.285356 1.772108,-0.662531 2.227612,-0.838186 0.455504,-0.175636 1.37732,-0.519826 2.048481,-0.764857 0.671164,-0.24503 1.220874,-0.480383 1.221578,-0.523011 8.15e-4,-0.04261 -0.423321,-0.787988 -0.942289,-1.65638 -1.004094,-1.680146 -1.643821,-2.903208 -2.028442,-3.878063 -0.509126,-1.290436 -0.892851,-2.95981 -0.680346,-2.95981 0.0527,0 0.420874,0.263521 0.818154,0.585612 0.801178,0.649536 1.785057,1.271115 2.592972,1.638136 0.759325,0.344939 1.60499,0.741796 2.932859,1.376352 1.064272,0.508596 1.826256,0.834048 3.271347,1.397243 0.962173,0.374987 5.964246,2.176621 7.526078,2.710722 2.040567,0.69781 2.197741,0.882163 1.802297,2.113941 -0.0625,0.194674 -0.359517,0.107301 2.804597,0.825075 0.911008,0.206664 1.879989,0.414916 2.153291,0.462775 0.909294,0.159254 2.206049,-0.0035 5.383231,-0.674714 0.409954,-0.08663 1.434839,-0.290799 2.27752,-0.453688 1.578554,-0.305144 2.045803,-0.436406 1.930146,-0.542261 -0.0367,-0.03361 -0.84936,-0.312465 -1.805917,-0.619744 -2.917885,-0.937318 -4.817619,-1.684619 -6.791153,-2.671472 l -1.076645,-0.538371 -0.82819,0.07314 c -0.455503,0.04023 -1.703999,0.07128 -2.774434,0.0689 -1.643648,-0.0035 -2.100767,-0.03273 -2.940071,-0.18789 -4.961996,-0.91708 -9.356932,-3.724976 -11.594914,-7.407906 -0.970613,-1.597299 -0.984178,-1.551487 0.459371,-1.551487 h 1.085451 L 24.81528,77.189976 C 24.709379,77.008569 24.412341,76.550532 24.155188,76.172113 23.235625,74.818901 22.402847,73.07985 21.838254,71.333759 21.31454,69.714114 21.180142,68.962349 21.16111,67.546103 l -0.01677,-1.248257 h 0.558051 c 0.457839,0 0.551177,-0.02232 0.519779,-0.124222 -0.68222,-2.21445 -0.875503,-3.206261 -0.92806,-4.762088 -0.05209,-1.542215 0.07557,-2.557087 0.475712,-3.781569 0.257343,-0.787485 0.85446,-2.050961 1.020545,-2.159418 0.170366,-0.111263 0.265128,-0.06696 0.950579,0.444381 0.374349,0.279268 0.701045,0.487361 0.725982,0.462421 0.02494,-0.02497 0.07959,-0.318658 0.121446,-0.652703 0.260233,-2.076818 0.703356,-3.743502 1.324216,-4.980688 0.387932,-0.773034 0.735565,-1.259337 1.492629,-2.088048 0.550414,-0.602515 0.592884,-0.672641 1.151564,-1.901463 0.559458,-1.230534 1.037514,-1.909324 2.144828,-3.045454 0.344063,-0.353021 0.687803,-0.641852 0.763872,-0.641852 0.08248,0 0.294545,0.250685 0.525445,0.621147 0.212927,0.341622 0.412446,0.619876 0.44337,0.618332 0.03093,-0.0018 0.220324,-0.285523 0.420895,-0.631071 1.185793,-2.042986 2.853674,-3.695343 4.604475,-4.561591 0.832057,-0.411687 0.964409,-0.461663 2.029064,-0.766189 1.056322,-0.302144 1.137882,-0.304914 1.257348,-0.0427 0.05189,0.113875 0.117586,0.207052 0.14601,0.207052 0.02842,0 0.311267,-0.178812 0.628554,-0.39735 0.931283,-0.641447 2.010504,-1.231928 2.937223,-1.607048 1.139116,-0.461098 1.994223,-0.721629 2.67391,-0.814692 0.772615,-0.105785 0.900655,-0.158849 1.025977,-0.42514 0.04989,-0.106023 0.209176,-0.444399 0.353975,-0.75196 0.544194,-1.1559 1.760176,-2.049399 2.789257,-2.049531 0.307567,-3.5e-5 0.539334,-0.04085 0.588346,-0.103588 0.04448,-0.0569 0.144141,-0.364401 0.221469,-0.683253 0.383351,-1.580688 0.647487,-2.414886 0.793487,-2.506068 0.138647,-0.08659 0.169082,-0.0419 0.328094,0.481589 0.09639,0.317363 0.262486,1.006325 0.369084,1.531021 0.106945,0.526372 0.255306,1.021938 0.330993,1.105571 0.08992,0.09935 0.3086,0.169488 0.634831,0.203585 1.062171,0.111015 1.763069,0.666536 2.522615,1.999361 0.205417,0.360466 0.417624,0.682662 0.471572,0.716009 0.05395,0.03335 0.286206,0.0839 0.516136,0.112251 0.762429,0.09417 1.728358,0.305858 2.360951,0.517392 0.64329,0.215115 2.172425,0.961155 2.996481,1.461934 0.484772,0.294593 0.650908,0.280716 0.650908,-0.05434 0,-0.233236 0.154862,-0.474905 0.304333,-0.474905 0.169921,0 2.110592,1.290541 2.571925,1.710326 0.387104,0.352236 1.264687,1.704248 1.264687,1.948397 0,0.183223 -0.365935,0.346633 -0.628619,0.280697 -0.122524,-0.0307 -0.23799,-0.188975 -0.363393,-0.497956 -0.123129,-0.303362 -0.351543,-0.619577 -0.691795,-0.957732 -0.757331,-0.752648 -0.741886,-0.432533 0.02169,0.449727 0.321849,0.371864 0.369231,0.51493 0.345056,1.041849 -0.0086,0.185421 0.106727,0.265392 1.103422,0.765695 l 1.11293,0.558652 0.101774,-0.475831 c 0.125248,-0.58555 0.172081,-0.642761 0.41866,-0.511384 1.745723,0.930093 3.42906,2.694551 3.717417,3.896564 0.119459,0.497939 0.03841,0.630895 -0.430235,0.705838 -0.442975,0.07084 -0.572636,0.312139 -0.305272,0.568091 0.225715,0.216077 0.981969,0.488076 1.081186,0.388864 0.03706,-0.03705 0.229175,-0.526452 0.426914,-1.08753 0.216638,-0.614706 0.418615,-1.053212 0.50821,-1.103347 0.124502,-0.06969 0.256383,0.02964 0.811128,0.61086 1.359068,1.423948 2.063145,2.578427 2.391199,3.920886 0.194806,0.797198 0.164825,0.900327 -0.261742,0.900327 -0.341594,0 -0.412364,-0.08976 -0.553916,-0.702494 -0.06653,-0.287923 -0.286614,-0.840841 -0.489088,-1.228699 -0.39841,-0.763172 -1.394704,-2.071719 -1.577353,-2.071719 -0.06197,0 -0.112726,0.0094 -0.112782,0.02073 -6.7e-5,0.01138 -0.05591,0.337484 -0.124114,0.724664 -0.0682,0.387179 -0.124055,1.011431 -0.124121,1.387221 -5.7e-5,0.37579 -0.02151,0.683253 -0.04762,0.683253 -0.02614,0 -0.235172,-0.205331 -0.464542,-0.456299 -0.486336,-0.532124 -0.799625,-0.769947 -1.144663,-0.868894 -0.175824,-0.05046 -0.247671,-0.0427 -0.246578,0.02655 9.7e-4,0.05373 0.377754,0.526328 0.837556,1.05016 0.459812,0.523822 0.89514,1.041082 0.967409,1.149451 0.123723,0.185535 0.120219,0.20609 -0.05996,0.351979 -0.105239,0.08522 -0.246231,0.154949 -0.313304,0.154949 -0.06707,0 -0.108012,0.04182 -0.09098,0.09291 0.03532,0.105978 2.026703,1.006905 2.139379,0.967877 0.04059,-0.01403 -0.08802,-0.37961 -0.285809,-0.812337 -0.197785,-0.432727 -0.482924,-1.114243 -0.633645,-1.51447 -0.270803,-0.719115 -0.272142,-0.729542 -0.113719,-0.885083 0.184761,-0.181388 0.53404,-0.281288 0.66207,-0.189363 0.0482,0.03458 0.267388,0.39773 0.487076,0.806911 0.219674,0.40919 0.568444,1.022424 0.775035,1.362749 0.35676,0.587712 0.484102,1.077852 0.296292,1.140462 -0.209373,0.06978 -0.646482,0.338199 -0.671123,0.412092 -0.01524,0.0457 0.193873,0.201247 0.464698,0.345592 l 0.492409,0.262454 0.417877,-0.825658 c 0.545049,-1.076925 0.813458,-1.495423 0.959101,-1.495423 0.250353,0 1.59223,1.751958 2.139364,2.793172 0.381504,0.726005 0.598631,1.556189 0.672084,2.569764 0.05538,0.763983 0.05487,0.766789 -0.155319,0.86256 -0.182386,0.0831 -0.238744,0.06987 -0.417101,-0.09766 -0.172281,-0.161848 -0.206228,-0.270314 -0.206228,-0.658826 0,-1.055982 -0.488953,-2.159065 -1.663817,-3.753612 -0.155334,-0.210827 -0.319332,-0.372587 -0.364425,-0.359478 -0.0451,0.01315 -0.188042,0.374917 -0.317662,0.804 -0.324567,1.074474 -0.356735,1.142544 -0.590067,1.248858 -0.244235,0.11128 -0.353465,0.06008 -2.309231,-1.082766 -0.721222,-0.421435 -1.329967,-0.747584 -1.352774,-0.724779 -0.02282,0.02285 -0.06185,0.19344 -0.08677,0.379195 -0.05442,0.405776 0.07777,1.122104 0.364768,1.976601 l 0.211546,0.629845 -0.184902,0.149727 c -0.279614,0.226416 -0.574332,0.181732 -1.083734,-0.16431 -0.463778,-0.315059 -1.593943,-0.8052 -2.081421,-0.902691 l -0.261345,-0.05223 0.189663,0.323925 c 0.28581,0.48812 1.056108,1.175379 1.598347,1.426038 0.515456,0.238282 0.647552,0.444707 0.482248,0.7536 -0.37098,0.693179 -2.321514,-0.756943 -3.431248,-2.550946 -0.66598,-1.076635 -0.660182,-1.032093 -0.125892,-0.967295 1.072836,0.130115 1.637208,0.249124 2.544554,0.536553 l 0.967052,0.306334 -0.01412,-1.246555 c -0.01509,-1.332992 -0.05523,-1.517751 -0.458288,-2.108409 -0.997843,-1.462341 -1.308204,-1.959795 -1.308204,-2.096773 0,-0.08601 0.111606,-0.25837 0.248015,-0.382963 l 0.248028,-0.22653 -0.752228,-0.272229 c -0.413724,-0.149727 -0.774986,-0.249459 -0.802813,-0.221644 -0.08442,0.08443 0.135558,0.791623 0.477782,1.536004 0.422682,0.919418 0.449607,1.030778 0.288241,1.19215 -0.208885,0.208878 -0.614441,0.158981 -1.611861,-0.198318 -0.508634,-0.182201 -0.980321,-0.331274 -1.048199,-0.331274 -0.462329,0 0.560419,0.907552 1.419391,1.259514 0.541216,0.221767 0.548934,0.222464 0.686223,0.06211 0.314594,-0.367418 0.720276,-0.153009 1.730336,0.914477 0.422319,0.44634 0.56378,0.690488 0.498551,0.860479 -0.05838,0.152161 -0.66525,0.547439 -0.840462,0.547439 -0.06867,0 -0.223296,-0.15839 -0.343642,-0.351979 -0.120342,-0.19359 -0.352077,-0.529002 -0.514964,-0.74537 L 71.174316,51.017811 H 70.65119 c -0.633689,0 -1.295215,-0.275713 -2.070647,-0.863019 -0.597921,-0.452859 -2.025545,-1.943579 -1.96113,-2.047802 0.02401,-0.03882 0.507325,-0.07066 1.074022,-0.07066 0.776645,0 1.030351,-0.02585 1.030351,-0.104973 0,-0.110707 -0.511381,-0.670286 -1.011667,-1.107009 -0.525686,-0.458902 -0.607352,-0.88518 -0.189673,-0.990011 0.281966,-0.07075 0.487299,0.01403 1.350605,0.557505 0.423717,0.266759 0.805604,0.485023 0.848622,0.485023 0.04318,0 0.06906,-0.242375 0.05778,-0.541105 -0.01534,-0.405952 0.01058,-0.561819 0.103796,-0.624031 0.114968,-0.07675 0.525933,-0.05143 0.973121,0.05999 0.104816,0.02611 0.186345,0.0079 0.186345,-0.04093 0,-0.209037 -0.617043,-1.11486 -0.856175,-1.256859 -0.144038,-0.08557 -0.432307,-0.371837 -0.640598,-0.636206 -0.559416,-0.710046 -1.240245,-1.221703 -2.35431,-1.76931 -0.909359,-0.446983 -2.280146,-0.882604 -2.448987,-0.778249 -0.06089,0.03767 0.516051,1.161088 0.936846,1.824263 0.171088,0.269643 0.587485,0.706023 1.521203,1.594211 0.29524,0.280848 0.197785,0.798425 -0.16761,0.890129 -0.111335,0.02797 -0.490137,-0.0442 -0.881805,-0.167917 -0.655794,-0.207167 -0.905891,-0.222897 -0.905891,-0.05699 0,0.04173 0.363367,0.257151 0.807484,0.478813 0.444117,0.221661 0.834865,0.440296 0.868323,0.485844 0.03347,0.04552 0.06142,0.1846 0.06212,0.30899 9.7e-4,0.175522 -0.04739,0.238387 -0.215994,0.280706 -0.257525,0.06466 -0.603499,-0.09091 -1.704287,-0.766215 -0.786804,-0.482686 -1.970933,-1.578994 -1.970933,-1.824757 0,-0.111545 0.140476,-0.120049 1.118054,-0.06766 0.625516,0.03352 1.117046,0.02814 1.115769,-0.01226 -0.0012,-0.0397 -0.168005,-0.332977 -0.370555,-0.651829 -0.20255,-0.318853 -0.442502,-0.71017 -0.533224,-0.869601 -0.09073,-0.159422 -0.236999,-0.38088 -0.325054,-0.492116 L 63.936997,42.041517 63.6359,42.305885 c -0.332683,0.292096 -0.504054,0.324393 -0.762126,0.143631 -0.158274,-0.110857 -0.179941,-0.104091 -0.265103,0.08284 -0.07507,0.164751 -0.153372,0.20355 -0.410765,0.20355 -0.470194,0 -1.072736,-0.203435 -1.648445,-0.55657 -0.56069,-0.343925 -2.095209,-1.584393 -2.095209,-1.693724 0,-0.03776 0.181681,-0.06864 0.40374,-0.06864 0.222055,0 0.519683,-0.0232 0.661395,-0.05152 l 0.257657,-0.05152 -0.21668,-0.25904 c -0.566647,-0.677431 -2.245072,-2.514909 -3.173479,-3.474211 -0.777166,-0.803021 -0.925536,-0.902948 -1.535258,-1.033901 -0.837225,-0.179818 -1.035236,-0.195257 -1.035236,-0.08072 0,0.186214 -0.27466,0.614724 -0.656868,1.024805 l -0.367005,0.393769 -0.308259,-0.347365 C 52.31472,36.346222 52.08855,36.013625 51.981665,35.798156 l -0.194337,-0.39174 -0.582605,0.01023 c -0.77998,0.01376 -1.286056,0.27087 -1.874665,0.952447 -2.168364,2.510869 -3.19652,3.540712 -4.482617,4.489983 -0.328153,0.242217 -0.885467,0.653859 -1.238482,0.914769 -0.353016,0.26091 -0.641739,0.500242 -0.641614,0.531851 0,0.03158 0.174938,0.150635 0.388461,0.264518 0.213515,0.113874 0.404471,0.258475 0.424348,0.321341 0.04625,0.146339 -1.275759,1.437215 -2.303783,2.249508 -1.076264,0.850413 -1.474085,1.128605 -2.484567,1.737428 -1.100688,0.663166 -1.142288,0.700165 -1.246914,1.108808 -0.160444,0.626669 -0.674725,1.907145 -1.034185,2.574933 -0.561122,1.04245 -1.158727,1.83664 -2.069536,2.750333 l -0.842824,0.845498 -0.04397,0.852292 c -0.0649,1.258403 -0.585338,2.631068 -1.594379,4.20528 -0.202501,0.315915 -0.341313,0.590993 -0.308476,0.611284 0.03283,0.02029 0.208671,-0.01853 0.390756,-0.08628 0.586748,-0.218353 0.720956,-0.228657 0.840919,-0.06458 0.06121,0.08372 0.111847,0.266185 0.112551,0.40552 0.0023,0.462774 0.255753,0.626016 0.971905,0.626016 1.203839,0 2.803304,0.465236 4.658514,1.35503 0.296078,0.141999 0.566274,0.271003 0.600438,0.28667 0.125677,0.05761 0.05586,-0.384708 -0.1812,-1.148075 -0.673608,-2.169113 -1.144757,-4.594373 -1.379266,-7.099886 -0.13425,-1.434357 -0.118448,-1.842171 0.0713,-1.840221 0.172686,0.0018 1.352623,0.634177 2.006371,1.07532 0.781488,0.527343 1.911056,1.474356 2.606817,2.185513 0.294761,0.30128 0.574275,0.547695 0.621142,0.547572 0.05439,-1.68e-4 0.09293,-0.531868 0.106555,-1.470033 0.02318,-1.595429 0.18047,-3.37177 0.433292,-4.893271 0.288483,-1.736104 0.615055,-3.243516 0.702221,-3.24132 0.170716,0.0044 1.701665,2.220749 2.715475,3.931367 0.632284,1.066859 1.637595,3.092369 2.032882,4.095851 0.265741,0.674635 0.280516,0.667524 0.422222,-0.202985 0.100083,-0.61483 0.484968,-2.788346 0.872601,-4.92772 0.160934,-0.888241 0.335188,-1.857221 0.38723,-2.153296 0.344271,-1.958718 0.945751,-4.788369 1.566776,-7.370889 0.147875,-0.614927 0.311763,-1.322803 0.364197,-1.573056 0.109587,-0.52302 0.302902,-0.64209 0.444001,-0.27349 0.103721,0.270949 0.676729,2.403381 0.919016,3.420114 0.391095,1.641153 0.988992,5.431923 1.83458,11.631527 0.183926,1.348475 0.222839,1.537415 0.316294,1.535695 0.0293,-5.91e-4 0.220968,-0.323802 0.425947,-0.718365 1.398663,-2.692328 3.049534,-5.331115 4.235559,-6.770218 0.04005,-0.04861 0.151203,-0.192813 0.246998,-0.320476 0.203335,-0.270967 0.227528,-0.258925 0.328154,0.163436 0.557694,2.340833 0.773147,4.598008 0.719934,7.542097 -0.03435,1.900061 -0.02582,2.081053 0.09374,1.989719 0.07234,-0.05523 0.411047,-0.362284 0.752676,-0.682284 0.732978,-0.686579 1.652723,-1.438433 2.401747,-1.963358 0.677442,-0.474755 1.949143,-1.144405 2.173285,-1.144405 0.16264,0 0.167799,0.0337 0.123642,0.807485 -0.105506,1.848319 -0.826013,5.231655 -1.683387,7.904786 -0.246344,0.76806 -0.447902,1.413555 -0.447902,1.434428 0,0.02091 0.214295,-0.05849 0.476208,-0.176316 2.449843,-1.102263 4.392378,-1.551266 5.895756,-1.362758 0.912564,0.11443 0.943103,0.132435 0.890444,0.525067 -0.05981,0.445898 -0.03155,0.495892 0.55227,0.976743 0.625748,0.515406 1.5607,1.569871 1.812086,2.043744 0.102845,0.193863 0.211572,0.352482 0.241609,0.352482 0.03005,0 0.262495,-0.312412 0.516558,-0.694245 0.647553,-0.973206 1.904323,-2.035805 2.270399,-1.919619 0.07777,0.0247 0.417977,0.483144 0.756019,1.018797 1.030922,1.633611 1.782679,2.754143 1.847839,2.754346 0.03406,8e-5 0.239041,-0.12588 0.455504,-0.279956 0.216473,-0.154085 0.589729,-0.378569 0.829456,-0.498857 0.444167,-0.22287 1.824445,-0.71174 2.009519,-0.71174 0.181011,0 0.0553,3.038591 -0.159319,3.851077 -0.371159,1.405104 -0.832386,2.278304 -1.549647,2.933847 -0.536485,0.490308 -0.832299,0.60158 -0.997762,0.375296 -0.185738,-0.254011 -0.133123,-0.36268 0.429133,-0.886459 0.875363,-0.815442 1.233497,-1.694535 1.486342,-3.648507 0.159908,-1.235712 0.159585,-1.458291 -0.0022,-1.520371 -0.285105,-0.109402 -1.829844,0.818821 -2.225137,1.337077 -0.175461,0.230051 -0.279755,0.291064 -0.497511,0.291064 -0.337404,0 -0.427618,-0.102185 -0.59382,-0.672606 -0.14459,-0.496183 -0.648947,-1.463029 -1.094901,-2.098864 -0.160878,-0.229363 -0.409939,-0.58473 -0.553473,-0.789708 -0.268862,-0.383951 -0.536601,-0.505006 -0.697326,-0.315325 -0.338026,0.398904 -1.595804,2.242116 -1.845347,2.704255 -0.108766,0.201415 -0.196562,0.261272 -0.383254,0.261272 -0.294476,0 -0.376981,-0.09215 -0.556831,-0.621888 -0.212613,-0.626237 -0.602798,-1.171832 -1.391317,-1.945494 -0.394607,-0.387179 -0.750548,-0.715101 -0.790981,-0.728704 -0.105361,-0.03547 -0.199475,0.906 -0.132565,1.326146 0.10257,0.644085 0.287405,1.177911 0.538711,1.555845 0.284532,0.42791 0.294867,0.498336 0.122167,0.832301 -0.161588,0.312466 -0.276832,0.307684 -0.598284,-0.02479 -0.353264,-0.365397 -0.657375,-1.061196 -0.821524,-1.87962 l -0.136575,-0.680924 -0.214576,0.274125 c -0.118008,0.150776 -0.551069,0.85268 -0.962337,1.559788 -1.356667,2.332523 -2.350015,3.615469 -4.389953,5.669764 -2.055863,2.070334 -3.781677,3.32512 -6.208471,4.51397 -1.670837,0.818512 -2.555221,1.146998 -4.496552,1.670151 -0.852075,0.229618 -1.631113,0.450318 -1.731197,0.490431 -0.29791,0.119424 -0.423711,0.41406 -0.485213,1.13643 -0.06831,0.802333 -0.157362,0.757764 1.092406,0.546619 0.976576,-0.164989 1.82619,-0.09168 4.069607,0.351159 1.579612,0.311813 2.11175,0.342955 2.717949,0.15906 0.668043,-0.202667 0.90932,-0.135205 0.817981,0.228702 -0.135849,0.541263 -1.660993,0.70664 -3.351491,0.363412 -2.850737,-0.578801 -3.5406,-0.607287 -4.876082,-0.201335 -0.792752,0.240972 -0.978214,0.266688 -1.873663,0.259851 -0.723296,-0.0053 -1.28562,-0.06705 -2.065742,-0.226036 -1.397668,-0.284836 -2.267798,-0.289273 -3.209564,-0.01632 -0.383552,0.111148 -0.88609,0.227131 -1.11674,0.257717 -0.597448,0.07922 -1.47291,-0.09208 -2.055483,-0.402274 -0.402302,-0.214198 -0.496914,-0.303626 -0.496914,-0.469638 0,-0.148324 0.06208,-0.226884 0.22439,-0.283962 0.184496,-0.06493 0.324402,-0.02991 0.786779,0.196721 0.728028,0.356832 1.364898,0.370859 2.538402,0.05593 1.091444,-0.292917 2.13238,-0.297116 3.553559,-0.01438 0.566128,0.112648 1.0909,0.228436 1.166159,0.257319 0.12252,0.04702 0.136831,-0.05099 0.136831,-0.937344 0,-0.846284 -0.02153,-1.009323 -0.148376,-1.124123 -0.175239,-0.158593 -0.847072,-0.41803 -2.306955,-0.890879 -1.367134,-0.442802 -2.343404,-0.823965 -3.406029,-1.329808 -3.004612,-1.430308 -6.255652,-4.18581 -8.684176,-7.360523 -1.128896,-1.475759 -1.803233,-2.560395 -2.720669,-4.376083 -0.307017,-0.607596 -0.587094,-1.073458 -0.622408,-1.035233 -0.06093,0.06599 -0.249418,1.656222 -0.248937,2.100188 0,0.119538 0.161075,0.420253 0.376743,0.703959 0.808023,1.062907 1.479129,2.761809 1.69238,4.284254 0.05582,0.398568 0.128692,0.724664 0.161927,0.724664 0.03323,0 0.277121,-0.465854 0.541976,-1.035233 0.264846,-0.56938 0.504002,-1.034131 0.531457,-1.032772 0.09276,0.0044 1.311065,1.68978 1.794429,2.4821 0.566565,0.928681 1.269962,2.390721 1.514096,3.147118 0.709551,2.198385 1.086932,5.036461 1.088522,8.186296 8.14e-4,1.388553 0.02397,1.724124 0.132196,1.907348 0.124411,0.210607 1.017207,0.682645 4.088489,2.161667 0.967863,0.466101 2.263798,0.948611 4.641803,1.72828 3.151332,1.03323 2.833508,0.973144 3.786877,0.715974 3.545885,-0.956488 7.483221,-2.390554 9.484855,-3.454582 0.598333,-0.318068 0.588039,-0.256596 0.282403,-1.686357 -0.82395,-3.854474 -0.125007,-7.64924 1.996998,-10.842312 0.387326,-0.582842 0.884164,-1.159429 1.677072,-1.946253 1.171499,-1.162517 1.541244,-1.446293 1.731364,-1.328784 0.116245,0.07181 0.323052,0.915421 0.549106,2.239795 0.152279,0.892149 0.194518,2.588854 0.09124,3.664995 -0.06559,0.683456 -0.06085,0.721964 0.08282,0.673064 0.08382,-0.0285 0.473219,-0.175734 0.865341,-0.327128 1.364592,-0.526848 3.662179,-0.978887 4.239237,-0.834065 0.215064,0.05399 0.224001,0.07799 0.224001,0.601218 0,0.517171 -0.129977,2.974657 -0.198105,3.745707 l -0.03181,0.359955 0.259885,-0.03961 c 0.142935,-0.02179 0.688482,-0.141875 1.212312,-0.266838 1.015542,-0.242278 2.422321,-0.315439 3.41628,-0.177666 0.42169,0.0584 0.476208,0.08769 0.476208,0.25544 0,0.382786 -0.689691,1.512926 -1.553178,2.545071 -1.275808,1.524994 -2.992256,2.614192 -5.196564,3.297551 -2.277686,0.706103 -5.118541,0.897134 -7.619343,0.512372 -0.637705,-0.09812 -1.29734,-0.178592 -1.465861,-0.178839 -0.202839,0 -0.650699,0.163136 -1.325102,0.483559 -1.985908,0.943546 -2.371271,1.092849 -5.490928,2.127315 -2.998615,0.994343 -3.105708,1.032569 -3.105708,1.108791 0,0.123869 1.88783,0.574743 5.797324,1.38461 3.416718,0.707787 2.881072,0.682018 5.217592,0.251003 1.115985,-0.205861 2.569457,-0.473864 3.229939,-0.595572 1.357758,-0.250174 1.573558,-0.345963 1.573558,-0.698551 0,-0.305894 0.10311,-0.573279 0.313693,-0.813457 0.165829,-0.189144 0.396588,-0.296781 2.709197,-1.263679 2.687665,-1.1237 6.895397,-3.10532 8.714499,-4.104056 0.45794,-0.251418 2.36886,-1.384901 3.609604,-2.141077 0.584593,-0.356276 1.53133,-1.128173 1.947651,-1.587957 0.242545,-0.267862 0.500626,-0.552247 0.573512,-0.631963 0.07289,-0.07975 0.168406,-0.144927 0.21225,-0.144927 0.129861,0 -0.01437,1.32964 -0.237225,2.187137 -0.331783,1.276532 -0.645218,2.032425 -2.07719,5.009341 -0.381116,0.792302 -0.692946,1.468375 -0.692946,1.502366 0,0.03396 0.307463,0.143437 0.683255,0.243204 0.375792,0.09977 0.981404,0.26758 1.345808,0.372914 0.364404,0.105353 1.519726,0.423438 2.567385,0.706879 1.813995,0.490767 2.250956,0.633154 2.175272,0.708829 -0.01853,0.01853 -0.385053,0.124566 -0.81458,0.235714 -1.517128,0.392587 -8.571071,2.753182 -9.849631,3.296166 -1.214638,0.51583 -3.728548,1.795183 -3.777328,1.922303 -0.024,0.0626 0.05208,0.302583 0.169057,0.533433 0.265238,0.52342 0.272988,0.79947 0.02636,0.93865 -0.959448,0.54141 -5.408341,1.82941 -8.350044,2.417412 -6.144154,1.22811 -13.370875,1.76154 -19.622048,1.44836 z m 10.476592,-1.05772 c 6.553712,-0.646862 11.453386,-1.567862 14.990228,-2.817742 0.546605,-0.19317 1.114948,-0.39179 1.262987,-0.44137 0.14804,-0.0496 0.269162,-0.11715 0.269162,-0.15015 0,-0.21694 -1.945723,-1.751386 -3.504556,-2.763779 -0.538216,-0.349545 -0.966805,-0.666563 -0.952419,-0.70448 0.0144,-0.03793 0.417483,-0.359266 0.895762,-0.714122 0.930999,-0.690734 1.680595,-1.367539 2.099574,-1.895711 0.208497,-0.262833 0.227074,-0.314415 0.0945,-0.262427 -0.270627,0.10611 -2.551036,0.698727 -4.016088,1.043666 -3.793296,0.893103 -7.281438,1.460709 -11.263373,1.83282 -2.335859,0.218291 -7.779693,0.305849 -10.148765,0.163224 -6.173453,-0.371643 -11.944715,-1.448666 -17.548814,-3.274922 -0.634766,-0.206858 -1.20615,-0.376099 -1.269747,-0.376099 -0.170806,0 0.07403,0.369809 1.57062,2.372266 0.719804,0.963122 1.308174,1.820301 1.30747,1.904842 -0.0019,0.230581 -0.06003,0.286662 -0.868323,0.837559 -1.081789,0.737306 -1.791853,1.347593 -2.229204,1.915963 l -0.384594,0.49982 0.450186,0.13087 c 0.873343,0.25389 5.012988,1.13044 6.88429,1.45773 3.786556,0.66225 8.685916,1.235992 11.511832,1.348102 1.512645,0.06 10.00817,-0.023 10.849276,-0.10606 z m -15.114452,-1.189392 -1.035237,-0.50516 -0.911008,-0.019 c -1.262416,-0.0264 -2.519036,-0.41619 -2.593847,-0.80467 -0.07217,-0.37472 1.137427,-0.3757 2.179752,-0.002 0.318853,0.1144 0.63639,0.22522 0.705643,0.24627 0.09757,0.0296 0.179046,-0.15283 0.361927,-0.81057 l 0.236018,-0.84887 -0.350598,-0.327023 -0.350597,-0.327031 -0.715291,0.05267 c -0.393415,0.02894 -1.11736,0.08883 -1.608766,0.133031 -0.85797,0.0772 -0.916383,0.0719 -1.470036,-0.133314 -0.317113,-0.117553 -0.57656,-0.246671 -0.57656,-0.286943 0,-0.04032 0.186343,-0.07322 0.414095,-0.07322 0.357082,0 0.414095,-0.0225 0.414095,-0.163524 0,-0.215627 -0.318075,-0.368944 -1.035238,-0.499024 -0.642053,-0.116468 -0.991359,-0.263107 -1.061382,-0.445599 -0.05973,-0.155637 0.08285,-0.205922 0.75776,-0.267288 1.219658,-0.110883 3.623204,0.446445 4.694417,1.088527 0.272532,0.163356 0.645921,0.443736 0.829746,0.623052 l 0.334224,0.326036 -0.003,-0.696444 c -0.0017,-0.383033 0.02181,-0.721392 0.05207,-0.751898 0.0715,-0.07208 0.346366,0.07702 0.588595,0.319241 0.15661,0.156617 0.373347,0.218238 1.181996,0.336109 0.544627,0.0794 1.055454,0.16243 1.135167,0.184556 0.253947,0.07049 0.156129,-0.04464 -0.186342,-0.219385 -0.379767,-0.193749 -0.40669,-0.278052 -0.143802,-0.450292 0.686913,-0.450089 2.760319,-0.545313 4.781666,-0.219623 1.525413,0.245789 3.257853,0.679733 3.357517,0.84099 0.06893,0.111519 -0.06297,0.09729 -0.776337,-0.08381 -2.437634,-0.618695 -4.737888,-0.746675 -5.956054,-0.33138 -0.548039,0.186831 -0.5705,0.209601 -0.411463,0.417156 0.141142,0.184212 1.907603,0.324746 4.817297,0.383277 2.219944,0.0446 4.383976,-0.03361 6.424205,-0.232421 0.718412,-0.06996 0.982862,-0.06175 1.508942,0.04693 l 0.637877,0.131756 0.31307,-0.202967 c 0.354594,-0.229875 1.573768,-0.631487 1.911619,-0.629713 0.122913,8.82e-4 0.596165,0.09284 1.051666,0.204872 0.455502,0.112031 0.870718,0.20467 0.922704,0.20587 0.05198,8.82e-4 -0.03102,-0.230748 -0.184467,-0.515442 -0.153437,-0.284685 -0.279815,-0.564201 -0.280854,-0.621138 -0.0012,-0.0659 0.11858,-0.103526 0.329397,-0.103526 0.189331,0 0.331274,0.03979 0.331274,0.09277 0,0.09166 0.314413,0.07852 1.377423,-0.05752 0.233758,-0.02991 0.484856,-0.02091 0.558002,0.02003 0.09726,0.05443 -0.100222,0.137137 -0.735054,0.307852 -0.856024,0.230192 -0.867343,0.236464 -0.817993,0.452788 0.02754,0.120649 0.176363,0.729913 0.330746,1.353912 0.154389,0.624 0.280707,1.17371 0.280707,1.22157 0,0.10018 -0.735376,0.11718 -0.88747,0.0205 -0.05538,-0.0352 -0.175769,-0.45129 -0.267533,-0.92468 -0.09176,-0.47339 -0.195525,-0.886663 -0.230593,-0.918395 -0.03506,-0.03176 -0.263309,-0.122485 -0.507208,-0.201653 -0.521486,-0.169268 -1.133029,-0.136573 -1.627003,0.08698 l -0.331275,0.149921 0.504432,0.09507 c 0.679869,0.128124 0.779261,0.173864 0.779261,0.358617 0,0.21865 -0.12963,0.30593 -0.699639,0.47105 -0.360122,0.10432 -0.649209,0.12957 -1.074982,0.0939 -0.514039,-0.043 -0.633082,-0.024 -1.014365,0.16252 -0.612876,0.29986 -1.636934,0.37046 -1.92901,0.13299 -0.18365,-0.14932 -0.192048,-0.18113 -0.08282,-0.31395 0.06685,-0.0813 0.382425,-0.26924 0.701276,-0.41765 0.486944,-0.226653 0.553222,-0.280733 0.414095,-0.337903 -0.236755,-0.0973 -1.077036,-0.0841 -2.312899,0.0363 -0.588834,0.0573 -1.078239,0.113273 -1.087554,0.124173 -0.0093,0.0109 0.02595,0.66584 0.07837,1.4554 0.05242,0.78955 0.07358,1.44898 0.04705,1.46538 -0.02655,0.0164 -0.232243,-0.0169 -0.457095,-0.074 l -0.408812,-0.10388 -0.07193,-0.88063 -0.07193,-0.88062 -0.251002,-0.0875 c -0.326022,-0.11365 -1.184034,-0.11263 -1.397602,0.002 -0.0971,0.052 -0.147243,0.13966 -0.120185,0.21019 0.07031,0.18321 -0.188894,0.23924 -0.436208,0.0943 -0.392041,-0.22979 -1.111612,-0.39527 -1.74835,-0.40209 -1.026994,-0.011 -1.575878,0.13371 -1.575878,0.41542 0,0.15117 0.225162,0.27897 0.677468,0.38449 0.194251,0.0453 0.216356,0.0303 0.177067,-0.11989 -0.05993,-0.22917 0.237899,-0.34028 0.912052,-0.34028 0.55767,0 1.06993,0.20441 1.11774,0.44601 0.07104,0.35902 -1.338421,0.50504 -2.499739,0.25899 -0.667072,-0.14133 -1.039552,-0.33916 -1.209853,-0.64257 -0.114679,-0.20432 -0.109396,-0.23364 0.07814,-0.43324 0.321809,-0.34255 0.971944,-0.48729 1.944912,-0.43298 0.457201,0.0255 1.032775,0.10819 1.279045,0.1837 0.380809,0.11676 0.478651,0.12076 0.654385,0.0267 0.320046,-0.17129 1.723572,-0.1481 2.078401,0.0343 0.155037,0.0798 0.297046,0.14493 0.315573,0.14493 0.01853,0 0.0221,-0.13975 0.0079,-0.31057 l -0.0257,-0.31057 -3.02289,-0.0538 c -1.66259,-0.0297 -3.376944,-0.0942 -3.809672,-0.143503 -0.432727,-0.0493 -0.82914,-0.0903 -0.880904,-0.0911 -0.102498,-0.002 -0.135095,0.191713 -0.289418,1.716283 -0.05645,0.55756 -0.12639,1.05219 -0.155434,1.09918 -0.03402,0.055 -0.19064,0.0245 -0.440174,-0.0859 -0.457113,-0.2022 -0.450793,-0.16036 -0.259099,-1.71548 0.07054,-0.57231 0.0985,-1.066863 0.06212,-1.098983 -0.05663,-0.05002 -0.554149,-0.12599 -2.019101,-0.30842 l -0.296566,-0.03696 -0.23061,1.394593 c -0.126829,0.76702 -0.271812,1.4205 -0.322174,1.45219 -0.111192,0.07 -0.155128,0.0408 0.641499,0.425 0.676234,0.3261 1.208387,0.68321 1.208387,0.81092 0,0.13485 -0.202093,0.0625 -1.242285,-0.44514 z m -2.257784,-0.9798 c -0.262602,-0.15291 -1.321708,-0.33894 -1.412527,-0.24812 -0.05614,0.0561 -0.01801,0.10839 0.116311,0.15941 0.341843,0.12984 0.516078,0.15926 0.986614,0.16659 0.348609,0.005 0.421258,-0.0129 0.309602,-0.0779 z M 41.509686,95.52582 c 0.727655,-0.05522 0.734728,-0.05787 0.543101,-0.202385 -0.248622,-0.187537 -0.593008,-0.28839 -1.579978,-0.462695 -0.952616,-0.168226 -1.293871,-0.106781 -0.752658,0.135532 0.204861,0.09171 0.412239,0.263566 0.495299,0.410434 0.113627,0.200938 0.185257,0.244713 0.349926,0.213854 0.113877,-0.02135 0.538812,-0.06396 0.94431,-0.09474 z M 31.296159,95.328517 c 0.576319,-0.386994 1.179267,-0.864113 1.209553,-0.957141 0.01521,-0.04676 -0.273179,-0.493961 -0.640869,-0.993823 -1.558238,-2.118396 -2.063955,-2.990078 -2.064809,-3.559061 -8.13e-4,-0.447601 0.214824,-0.770009 0.770473,-1.152697 0.428489,-0.295104 0.528874,-0.462281 0.277593,-0.462281 -0.05528,0 -0.751864,-0.237947 -1.547968,-0.528763 -3.637474,-1.328767 -5.677097,-2.185593 -8.223075,-3.454379 -1.416459,-0.7059 -1.633696,-0.792426 -1.58862,-0.632704 0.217306,0.770018 1.926613,3.854544 3.080214,5.558395 0.244439,0.361031 0.432174,0.693249 0.417175,0.738233 -0.02541,0.07622 -0.307514,0.185032 -2.37981,0.917997 -1.796792,0.635518 -2.486683,0.914699 -2.459786,0.995384 0.01566,0.04693 0.696635,0.226037 1.513286,0.397934 4.768345,1.003641 8.698517,2.204366 10.594904,3.236882 0.364545,0.198485 0.630898,0.171896 1.041739,-0.103976 z m 45.587584,0.132074 c 0.432786,-0.301492 1.949194,-1.087248 3.103442,-1.608089 1.897496,-0.856244 3.484242,-1.432998 7.110358,-2.584514 0.744949,-0.236561 1.32261,-0.460569 1.283693,-0.497798 -0.03891,-0.03723 -0.573878,-0.203682 -1.188808,-0.369906 -0.61493,-0.166232 -1.3603,-0.371396 -1.656376,-0.45592 -0.296079,-0.08451 -0.845789,-0.235361 -1.221578,-0.335191 -0.375792,-0.09984 -0.683258,-0.221608 -0.683258,-0.270605 0,-0.04905 0.203313,-0.445554 0.45181,-0.881237 0.950084,-1.665731 2.712666,-5.564473 2.576987,-5.700155 -0.02125,-0.02126 -0.832546,0.427522 -1.802878,0.99728 -0.970333,0.569759 -2.099658,1.229423 -2.509612,1.465905 -0.727432,0.419644 -5.721868,2.91533 -6.373462,3.184771 l -0.327681,0.135505 0.263065,0.159978 c 0.144677,0.08796 0.37599,0.315871 0.514017,0.506408 0.202127,0.279031 0.250964,0.429516 0.250964,0.773273 0,0.796105 -0.512655,1.502657 -2.135824,2.94364 -0.377573,0.335191 -0.67572,0.658014 -0.662552,0.717403 0.03509,0.158187 2.478952,1.916223 2.676419,1.925327 0.09236,0.0042 0.241432,-0.04348 0.331274,-0.106075 z M 56.819517,92.933675 c 0.53573,-0.02797 0.982953,-0.08213 0.993827,-0.120402 0.01988,-0.06996 -2.119807,-0.977202 -3.582845,-1.519154 -1.056215,-0.391246 -1.568647,-0.36261 -3.188529,0.178168 -0.637706,0.212901 -1.737128,0.515116 -2.443159,0.671609 -1.539199,0.341155 -1.593369,0.359125 -1.357483,0.450327 0.191187,0.07393 2.767143,0.317874 3.759233,0.356002 1.167322,0.0449 4.843365,0.03441 5.818956,-0.01659 z M 72.81489,90.472201 c 2.108009,-0.567818 2.661065,-0.741046 2.636218,-0.825702 -0.04176,-0.142307 -1.680206,-0.06025 -2.352431,0.11787 -0.587573,0.155664 -1.693694,0.578308 -1.964488,0.750628 -0.147865,0.09409 -0.05741,0.338728 0.125247,0.338728 0.0765,0 0.776453,-0.171684 1.555454,-0.381524 z m -37.050983,-0.0764 c 0.07859,-0.0947 0.0826,-0.176131 0.01589,-0.322558 -0.09863,-0.216465 -0.913443,-0.527625 -1.964879,-0.750345 -0.621059,-0.131545 -2.11117,-0.170997 -2.11117,-0.05593 0,0.0883 3.444928,1.239047 3.737411,1.24846 0.119689,0.0035 0.26492,-0.05002 0.322745,-0.11967 z m 34.545391,-4.182987 c 2.731036,-0.273552 5.073428,-1.313266 6.889985,-3.058281 0.605192,-0.581342 1.628436,-1.903007 1.628436,-2.103345 0,-0.102177 -1.648908,-0.05152 -2.290945,0.0704 -0.357023,0.06775 -1.122371,0.277487 -1.700778,0.466012 -0.578407,0.188517 -1.109806,0.32045 -1.180891,0.293172 -0.07107,-0.02726 -0.171715,-0.142827 -0.223626,-0.256772 -0.07908,-0.173564 -0.05917,-0.285691 0.122752,-0.69107 0.396414,-0.88331 0.476484,-1.372974 0.451495,-2.761077 l -0.02291,-1.273048 -0.224596,-0.02594 c -0.578789,-0.06678 -2.922414,0.600556 -4.197609,1.195184 -0.428,0.19958 -0.858454,0.362875 -0.956559,0.362875 -0.422667,0 -0.475266,-0.357352 -0.194267,-1.319822 0.151177,-0.517823 0.183027,-0.834621 0.18368,-1.827297 9.71e-4,-1.160134 -0.208064,-2.974163 -0.372981,-3.239802 -0.08667,-0.139608 -0.993192,0.719671 -1.744194,1.653301 -2.376943,2.954985 -3.24993,7.155642 -2.300445,11.069267 0.177052,0.729763 0.345786,1.019053 0.693832,1.189573 0.510877,0.250298 3.904524,0.410417 5.439626,0.256667 z m -0.363907,-1.946808 c -0.03416,-0.03599 -0.06212,-0.262825 -0.06212,-0.504159 0,-0.365503 0.03002,-0.454852 0.17974,-0.534982 0.214395,-0.114748 4.160708,-0.02329 4.396006,0.10192 0.176876,0.09409 0.193357,0.507926 0.02685,0.674423 -0.06494,0.06493 -0.353771,0.141037 -0.641847,0.1691 -0.93631,0.0912 -3.834816,0.16086 -3.898635,0.0937 z m -0.565903,-1.83439 c -0.06455,-0.0915 -0.238478,-0.228772 -0.386516,-0.305047 -0.360876,-0.185949 -0.348452,-0.400173 0.0598,-1.031836 0.612141,-0.947102 1.713896,-1.898341 2.886456,-2.492122 0.196984,-0.09976 0.392353,-0.169876 0.434144,-0.155831 0.08081,0.02717 -0.80326,1.572289 -1.41033,2.464906 -0.199942,0.293992 -0.611634,0.793669 -0.91486,1.110405 -0.529081,0.552626 -0.55607,0.56915 -0.668696,0.409525 z m -3.228207,-3.016474 c -0.05808,-0.108528 -0.097,-0.525904 -0.09501,-1.018833 0.0025,-0.649518 0.05122,-0.997254 0.218733,-1.565504 0.290428,-0.985178 0.437978,-1.320078 0.563194,-1.278341 0.133576,0.04455 0.184319,0.353153 0.35569,2.163159 0.161836,1.709338 0.15613,1.72812 -0.556045,1.828585 -0.345655,0.04878 -0.398958,0.03458 -0.486562,-0.129066 z m -26.890303,6.415504 c 0.32764,-0.03096 0.559028,-0.09137 0.559028,-0.145986 0,-0.05126 -0.344734,-0.430354 -0.766075,-0.842464 -0.882295,-0.862958 -1.252355,-1.145287 -3.540509,-2.701079 -0.56938,-0.387135 -1.320904,-0.90937 -1.670043,-1.160514 -1.667178,-1.199216 -4.080679,-2.11095 -6.524335,-2.464668 -1.395722,-0.202041 -3.317452,-0.311477 -3.317452,-0.188931 0,0.259754 1.477547,2.086372 2.397326,2.963692 2.324686,2.217369 5.97729,4.005303 9.115042,4.461752 0.844132,0.122802 2.834892,0.164345 3.747018,0.07816 z m -5.487019,-0.916231 c -0.111507,-0.07807 -0.55771,-0.332474 -0.991549,-0.565269 -0.433838,-0.232794 -0.99377,-0.536041 -1.244296,-0.673858 -0.250528,-0.137826 -0.977263,-0.533889 -1.614969,-0.880152 -1.220353,-0.662601 -2.250331,-1.334262 -2.38651,-1.556268 -0.164735,-0.268532 0.158408,-0.936312 0.369182,-0.762907 0.06188,0.0509 0.485178,0.258458 0.940682,0.461222 1.826969,0.813325 5.756072,2.829809 5.803197,2.978301 0.07496,0.236164 -0.0418,0.624799 -0.268715,0.89447 -0.239471,0.284605 -0.32807,0.29985 -0.607022,0.104461 z m 6.212712,-3.916104 c -0.208166,-3.066204 -0.805174,-5.489937 -1.846175,-7.495112 -0.297875,-0.573764 -1.258251,-2.055318 -1.41853,-2.188345 -0.210277,-0.174508 -0.989844,1.967187 -1.324084,3.637673 -0.276864,1.383719 -0.405573,2.646498 -0.34182,3.353641 0.212763,2.360048 0.424473,2.758652 1.9481,3.667898 0.387179,0.231048 1.22572,0.789911 1.863426,1.241905 l 1.159465,0.821821 0.0262,-0.836483 c 0.0144,-0.460066 -0.01555,-1.451419 -0.06658,-2.202998 z m -2.97575,-1.182022 c -0.0479,-0.238123 -0.162905,-0.917442 -0.255563,-1.509591 -0.430029,-2.748374 -0.494048,-3.705656 -0.318795,-4.766843 0.07502,-0.454279 0.125156,-0.574982 0.238801,-0.574982 0.07911,0 0.162134,0.0652 0.184495,0.144936 0.02236,0.07975 0.268407,0.92757 0.54677,1.884129 0.545619,1.874953 0.897376,3.458243 0.977794,4.401092 0.05941,0.696557 0.03415,0.722767 -0.774299,0.803242 l -0.512095,0.05099 z m -4.230523,-0.600654 c 0,-0.02391 -0.126159,-0.294107 -0.28035,-0.600442 -0.343724,-0.682883 -0.761678,-1.851239 -0.939913,-2.627433 -0.196968,-0.857779 -0.178756,-2.759224 0.03172,-3.312751 0.135947,-0.35751 0.191129,-0.417041 0.403833,-0.435682 0.447372,-0.03917 0.383675,-0.219297 1.252255,3.54139 0.110465,0.478275 0.254909,1.121098 0.320982,1.428491 0.149785,0.696813 0.351856,1.193579 0.443976,1.091438 0.03808,-0.04226 0.152369,-0.822147 0.253972,-1.733149 0.101602,-0.911011 0.222816,-1.97316 0.269377,-2.360339 0.04655,-0.387179 0.06257,-1.244349 0.0356,-1.904833 -0.05724,-1.401478 -0.330224,-2.589869 -0.882286,-3.840835 -0.391792,-0.887809 -0.589373,-1.173403 -0.765131,-1.105959 -0.370433,0.142149 -2.012458,3.127339 -2.402122,4.367057 -0.454593,1.446249 -0.508815,1.787828 -0.512682,3.229939 -0.0032,1.175088 0.0241,1.476729 0.194599,2.153296 0.327152,1.298225 0.31877,1.287903 1.416701,1.744591 0.918338,0.381992 1.159465,0.45794 1.159465,0.365221 z m -4.486202,-1.5922 c -0.912789,-1.080234 -1.894367,-2.278118 -2.358261,-2.877951 -1.066434,-1.378937 -2.207886,-3.124578 -2.30731,-3.528607 -0.06958,-0.282753 0.134689,-0.488111 0.485518,-0.488111 0.209416,0 0.347293,0.08407 0.644935,0.393389 0.456474,0.474314 2.927707,3.260234 3.507688,3.954339 0.227753,0.272564 0.510653,0.601924 0.62867,0.731907 l 0.214577,0.236341 0.05425,-1.06372 c 0.09064,-1.777426 0.07698,-2.074127 -0.101313,-2.199011 -0.08593,-0.06017 -0.294902,-0.369764 -0.464383,-0.687956 -1.030283,-1.934281 -2.367262,-3.275892 -4.155356,-4.169744 -0.666303,-0.333083 -2.363237,-0.850245 -2.465362,-0.751351 -0.114737,0.111104 0.0813,1.788524 0.328444,2.810436 0.468473,1.937087 1.004179,3.109069 2.586104,5.657678 0.908059,1.462967 1.208865,1.841439 1.52704,1.921295 0.423419,0.10627 1.043874,0.187009 1.508182,0.196254 0.457641,0.0091 0.481186,8.82e-4 0.366581,-0.135188 z m 25.025087,-0.624067 c 1.519942,-2.517026 1.913779,-4.052483 2.150078,-8.382488 0.304352,-5.577151 -0.09175,-11.060374 -1.447848,-20.042183 -0.110035,-0.728802 -0.313429,-2.089107 -0.451983,-3.022887 -0.297876,-2.007539 -0.403049,-2.502585 -0.523144,-2.462551 -0.04902,0.01632 -0.176429,0.437333 -0.283158,0.935554 -0.165579,0.77292 -0.964485,5.331282 -1.182075,6.74459 -0.03857,0.250527 -0.257052,1.629464 -0.485526,3.064298 -0.903447,5.673742 -1.182513,8.691416 -1.187117,12.836935 -0.0031,2.696589 0.202593,6.067036 0.442028,7.246658 0.346059,1.704901 1.309211,3.591544 1.916009,3.753136 0.444457,0.118356 0.658395,-0.018 1.052736,-0.671062 z m 2.609004,-0.19606 c 3.739729,-1.120391 6.53654,-2.788143 9.27821,-5.532617 1.189462,-1.190685 1.295787,-1.308697 2.204327,-2.446768 1.243493,-1.557653 2.391743,-3.374328 3.271661,-5.176183 0.28917,-0.592149 0.525792,-1.104591 0.525826,-1.138759 0,-0.208304 -1.756597,0.103235 -2.940006,0.521362 -2.874436,1.015595 -6.591459,3.87187 -9.587252,7.367148 -0.409935,0.478275 -0.82712,0.964437 -0.927082,1.080367 -0.589256,0.683377 -1.246109,1.567895 -1.350271,1.818289 -0.06633,0.159431 -0.223594,0.513484 -0.349487,0.78678 -0.125895,0.273305 -0.424109,1.018674 -0.662693,1.65638 -0.238593,0.637706 -0.453739,1.192564 -0.478113,1.233039 -0.05235,0.0869 0.426872,0.0071 1.01488,-0.169038 z m -6.004371,0.02311 c 0,-0.06264 -0.05796,-0.276895 -0.128794,-0.476211 -0.07084,-0.199315 -0.198508,-0.604632 -0.283721,-0.900715 -0.529492,-1.839718 -0.544889,-1.875871 -1.170412,-2.749512 -2.512387,-3.508872 -5.642976,-6.703691 -8.313936,-8.484505 -1.59115,-1.06087 -3.000289,-1.685457 -4.746667,-2.103919 -0.560891,-0.134403 -1.036065,-0.244369 -1.055941,-0.244369 -0.248929,0 0.687024,2.030864 1.812989,3.933898 1.824915,3.084359 4.108042,5.651917 6.87378,7.730129 2.078763,1.561993 4.078734,2.564223 6.598606,3.306699 0.399459,0.117703 0.414096,0.117297 0.414096,-0.01147 z m -1.287058,-6.366762 c -0.12161,-0.565013 -0.785552,-2.799153 -1.138312,-3.830381 -1.55438,-4.543912 -3.600636,-7.998758 -6.221208,-10.503751 -0.755417,-0.722106 -1.837612,-1.629235 -1.943662,-1.629235 -0.135027,0 -0.115805,0.387012 0.07565,1.522957 0.366299,2.173286 0.721593,3.6505 1.416518,5.889343 0.418003,1.34671 0.58924,1.643394 1.24418,2.155686 1.797841,1.40625 3.614491,3.261045 6.10416,6.232324 0.419595,0.500762 0.544865,0.544907 0.462676,0.163048 z m 9.001265,-0.745369 c 2.295228,-2.486167 3.625027,-3.752236 5.166089,-4.918529 1.124308,-0.85088 1.342411,-1.211884 1.978742,-3.275231 0.667339,-2.163908 1.660421,-6.516418 1.519056,-6.657781 -0.133776,-0.133777 -1.429439,0.914363 -2.718165,2.198887 -1.66423,1.658797 -2.909976,3.363769 -4.116335,5.633744 -1.188442,2.236275 -2.01592,4.386818 -2.747939,7.141615 -0.188082,0.707805 -0.207496,0.891822 -0.0941,0.891822 0.04183,0 0.497523,-0.456537 1.012657,-1.014527 z m -27.320735,0.206999 c 0.202699,-0.352986 0.593456,-1.033116 0.868348,-1.5114 1.148897,-1.99892 1.47493,-3.28475 1.406969,-5.548867 -0.02256,-0.751589 -0.08612,-1.563608 -0.141256,-1.804501 -0.117404,-0.512981 -0.106298,-0.512637 -1.077375,-0.03344 -1.690905,0.834471 -3.432819,2.504181 -4.336597,4.15683 -0.323243,0.591081 -0.882593,2.178288 -0.882593,2.504428 0,0.210828 0.201945,0.423861 1.315869,1.388059 0.289427,0.250527 0.558977,0.467927 0.599003,0.48311 0.04003,0.01517 0.07278,-0.405653 0.07278,-0.93521 0,-1.455239 0.297229,-2.635999 0.963449,-3.827319 0.314538,-0.562428 0.475837,-0.664525 0.809622,-0.512443 0.246916,0.112507 0.351367,0.394898 0.230244,0.622497 -0.234419,0.44049 -0.452232,1.859576 -0.492582,3.209287 -0.04094,1.36978 0.07073,2.58971 0.228174,2.492403 0.03707,-0.02294 0.233252,-0.330471 0.435943,-0.683474 z m -5.928195,-3.354131 c -0.02649,-0.148042 -0.182144,-0.902727 -0.345893,-1.677086 -0.476135,-2.251625 -0.798466,-3.784294 -0.870618,-4.139785 -0.103921,-0.511957 0.149761,-0.789603 0.614807,-0.672879 0.165025,0.04146 0.298297,0.37684 1.088845,2.740505 0.495448,1.481316 0.926884,2.693306 0.958745,2.693306 0.03186,0 0.230492,-0.307463 0.441392,-0.683262 0.210906,-0.37579 0.49866,-0.839023 0.639452,-1.029411 0.458196,-0.619603 0.412902,-1.338391 -0.17695,-2.808513 -0.514405,-1.282063 -0.976783,-1.932314 -2.341755,-3.293228 -0.678684,-0.676663 -1.256421,-1.207861 -1.28385,-1.180425 -0.05979,0.05981 -0.295523,0.691458 -0.574167,1.538501 -0.714438,2.171813 -0.540444,4.928161 0.484151,7.66961 0.307995,0.824087 0.599277,1.111825 1.12555,1.111825 0.280102,0 0.287059,-0.0079 0.240291,-0.269158 z m 24.376224,-4.161647 c 0.290025,-3.595698 0.282413,-3.361113 0.135236,-4.16558 -0.291794,-1.594909 -1.132788,-3.921998 -2.011391,-5.565647 -0.757121,-1.416396 -1.805964,-3.148566 -1.889794,-3.121015 -0.219917,0.07225 -0.50378,4.061614 -0.419494,5.895448 0.114066,2.481606 0.150399,2.5984 1.610232,5.176183 1.129699,1.994827 1.37109,2.458686 1.788591,3.436982 0.213828,0.501054 0.429381,1.00418 0.479,1.118054 0.07516,0.172505 0.101113,0.04817 0.1555,-0.745369 0.0359,-0.523823 0.10436,-1.436907 0.15212,-2.029056 z m 8.525772,1.863423 c 0.565617,-1.368809 1.914831,-3.789923 2.805259,-5.033937 0.46642,-0.651636 0.556261,-0.944111 0.76874,-2.502584 0.229939,-1.686481 0.06737,-7.039615 -0.213787,-7.039615 -0.05421,0 -0.60404,0.885127 -1.221844,1.966949 -2.604299,4.560329 -2.996381,5.787484 -2.747711,8.60002 0.06004,0.679099 0.111036,1.812397 0.113321,2.51842 0.0022,0.706041 0.02795,1.481855 0.05703,1.724053 0.06245,0.520021 0.146051,0.475594 0.438985,-0.233306 z m -27.46201,-3.499097 c 1.017372,-1.020774 1.919046,-2.345201 2.551336,-3.74756 0.275638,-0.61132 0.544758,-1.580511 0.461889,-1.663385 -0.06727,-0.06722 -1.515503,0.217718 -2.365523,0.465483 -1.444073,0.420914 -2.487864,1.00657 -3.567757,2.001813 -0.615187,0.566963 -0.613622,0.575635 0.397067,2.198271 0.14895,0.239146 0.281261,0.4348 0.294032,0.4348 0.01277,0 0.125446,-0.28031 0.250403,-0.62292 0.476855,-1.307462 1.763223,-3.024308 2.261619,-3.018477 0.286678,0.0035 0.514861,0.175505 0.514861,0.388432 0,0.09117 -0.116792,0.422476 -0.259539,0.736239 -0.376196,0.826902 -0.706469,1.626605 -1.0223,2.475315 -0.152552,0.409958 -0.303224,0.810599 -0.334819,0.890306 -0.122026,0.307852 0.160535,0.12207 0.818731,-0.538317 z m -2.142145,-4.579385 c 0.273302,-0.158672 0.800486,-0.43555 1.171523,-0.615289 0.371029,-0.17973 0.750273,-0.422979 0.842749,-0.540549 0.344361,-0.437791 0.449782,-1.649737 0.212878,-2.447465 -0.200961,-0.676717 -0.891546,-1.985855 -1.22707,-2.326127 -0.331317,-0.336021 -0.808263,-0.593199 -1.024064,-0.552177 -0.202252,0.03846 -0.927762,1.286042 -1.325923,2.280059 -0.190955,0.476731 -0.428124,1.291044 -0.542729,1.863423 -0.238552,1.191444 -0.350738,2.21669 -0.22906,2.093306 0.04492,-0.04552 0.27331,-0.530042 0.507539,-1.076652 1.504331,-3.510575 1.526626,-3.558038 1.685497,-3.588632 0.248085,-0.04781 0.539872,0.06114 0.63378,0.236641 0.07188,0.134305 -0.06155,0.616788 -0.701575,2.536813 -0.434675,1.304021 -0.790325,2.384273 -0.790325,2.40055 0,0.104214 0.361671,-0.01711 0.78678,-0.263901 z m 4.969135,-2.219955 c 0.921071,-0.614133 2.389674,-2.180661 3.000936,-3.201047 0.568577,-0.949139 1.0986,-2.214582 1.0986,-2.622951 0,-0.208817 -0.01184,-0.213783 -0.386789,-0.162395 -0.440795,0.06043 -1.857023,0.712639 -2.570459,1.183777 -0.993545,0.656117 -2.276783,2.068278 -2.787444,3.067491 -0.145099,0.283918 -0.184927,0.853007 -0.05969,0.853007 0.04167,0 0.218435,-0.195663 0.39281,-0.434801 0.804346,-1.103074 1.761542,-2.110015 2.624632,-2.761033 0.496143,-0.374219 0.689517,-0.429948 0.970364,-0.279648 0.345595,0.184962 0.2025,0.479634 -0.883372,1.819102 -1.811414,2.234458 -2.237543,2.819884 -2.130499,2.92693 0.05808,0.05805 0.07364,0.04984 0.730911,-0.388432 z m 0.06648,-5.118663 c 0.221657,-0.34666 0.169415,-0.850995 -0.200074,-1.931335 -0.395369,-1.155988 -0.712085,-1.882884 -1.013985,-2.327168 l -0.214394,-0.315509 -0.346671,0.364436 c -0.700847,0.736741 -1.738071,2.534828 -2.009858,3.484215 -0.154574,0.53994 -0.08517,0.940194 0.236058,1.361346 0.195172,0.255882 0.376727,0.371979 0.376727,0.240893 0,-0.125951 0.519399,-2.342748 0.595411,-2.54118 0.06993,-0.18258 0.139591,-0.227757 0.351218,-0.227757 0.557967,0 0.580047,0.06237 0.635014,1.794488 0.02723,0.857823 0.05517,1.575888 0.06212,1.595702 0.02222,0.06343 1.382496,-1.26988 1.52844,-1.498131 z m 37.433125,-0.618615 c 0.02842,-0.02841 -0.0231,-0.198213 -0.114464,-0.377316 l -0.166133,-0.325646 -0.279846,0.23238 c -0.15391,0.127804 -0.282529,0.256622 -0.285816,0.286264 -0.0034,0.02964 0.133778,0.09101 0.304591,0.13637 0.393273,0.104461 0.477691,0.111925 0.541668,0.0479 z M 34.668723,47.733768 c 0.715704,-0.282489 0.76851,-0.319215 0.74537,-0.518309 -0.03485,-0.299806 -0.289395,-0.31303 -0.825548,-0.04288 -0.643942,0.324464 -0.897143,0.523108 -0.897143,0.703835 0,0.219721 0.09397,0.206003 0.977321,-0.142651 z m 3.988202,-1.575015 c 1.212254,-0.720473 2.156117,-1.44235 3.260764,-2.493868 0.433764,-0.412904 0.467355,-0.468297 0.331275,-0.546204 -0.26608,-0.152321 -1.582503,-0.09354 -2.287466,0.102141 -1.106569,0.307155 -2.377608,1.053468 -2.377608,1.396052 0,0.06872 0.04636,0.104064 0.103524,0.07887 2.238239,-0.987082 2.411612,-1.044011 2.703599,-0.887747 0.213972,0.114518 0.228796,0.434827 0.02943,0.635986 -0.07972,0.08046 -0.666692,0.531921 -1.304398,1.003324 -1.727544,1.277025 -1.600625,1.171232 -1.411532,1.176605 0.08912,0.0026 0.517709,-0.206787 0.952417,-0.465148 z m -3.055512,-0.865516 c 1.43989,-1.239285 3.268962,-4.003371 3.667967,-5.543018 0.06431,-0.248154 0.101205,-0.47801 0.08198,-0.510784 -0.04781,-0.08152 -0.769222,0.208684 -1.519016,0.61109 -1.256892,0.674555 -2.278116,1.527155 -3.199659,2.671322 -0.832197,1.033231 -1.603838,2.412151 -1.603838,2.866042 0,0.299691 0.164926,0.170237 0.556113,-0.436477 0.748964,-1.161625 1.271874,-1.796702 2.374551,-2.883906 0.61228,-0.603697 1.210008,-1.15635 1.328282,-1.228108 0.304733,-0.1849 0.496061,-0.04473 0.528286,0.386994 0.02745,0.367947 0.135624,0.209231 -2.380084,3.492358 -0.504027,0.657785 -0.916407,1.227085 -0.916407,1.265116 0,0.129807 0.497824,-0.188005 1.081822,-0.690629 z M 72.32319,44.910002 c -0.221027,-0.529293 -0.501875,-0.956021 -0.919961,-1.397834 -0.458328,-0.484345 -1.092944,-0.959558 -1.196196,-0.89574 -0.06507,0.04023 -0.01978,1.271106 0.05566,1.512987 0.0257,0.0824 0.08861,0.06696 0.252667,-0.06211 0.377238,-0.296736 0.540874,-0.229256 1.189932,0.490723 0.328501,0.36441 0.631098,0.662557 0.672431,0.662557 0.04134,0 0.01681,-0.139757 -0.05453,-0.310577 z M 39.971311,41.295495 c 1.268588,-1.565814 3.157886,-2.993193 3.882667,-2.933388 0.294206,0.02426 0.315574,0.04446 0.338755,0.320264 0.02379,0.283221 -0.03187,0.348583 -1.470036,1.726276 -1.250698,1.198105 -1.66105,1.664814 -1.463783,1.664814 0.135285,0 0.780486,-0.290922 1.294062,-0.583486 0.8829,-0.502958 1.80209,-1.210437 3.094653,-2.381864 1.363671,-1.23588 1.840229,-1.778123 1.915535,-2.179559 0.05448,-0.290393 0.04729,-0.301685 -0.224712,-0.352711 -0.538829,-0.101083 -2.160016,0.426569 -3.506718,1.141335 -1.337344,0.709807 -2.818295,1.672003 -3.291092,2.138272 -0.360594,0.355622 -0.572064,0.667471 -0.848894,1.251865 -0.396836,0.837735 -0.469815,1.15306 -0.177721,0.767918 0.09996,-0.1318 0.305734,-0.392684 0.457284,-0.579736 z m 21.98512,0.25956 c -0.129264,-0.222111 -0.212588,-0.272105 -0.483373,-0.289987 -0.286047,-0.01888 -0.641126,0.08987 -0.531837,0.162898 0.250344,0.167282 1.122387,0.525049 1.143531,0.469153 0.01531,-0.04049 -0.04242,-0.194463 -0.128321,-0.342064 z m 1.881041,8.12e-4 c -7e-6,-0.01138 -0.09155,-0.317371 -0.203426,-0.679972 -0.111883,-0.362592 -0.188731,-0.673964 -0.170767,-0.691917 0.01797,-0.018 0.491505,0.04111 1.052323,0.131351 0.560816,0.0902 1.029953,0.155258 1.042524,0.144548 0.02699,-0.02294 -0.402201,-1.724442 -0.447817,-1.775389 -0.01715,-0.01914 -0.117306,0.04605 -0.222543,0.144928 -0.105248,0.09888 -0.276796,0.179765 -0.381226,0.179765 -0.104424,0 -0.548285,-0.251559 -0.986354,-0.559022 -1.031446,-0.723923 -1.173173,-0.811208 -1.941194,-1.195458 -1.049441,-0.525049 -2.890555,-1.061302 -3.643933,-1.061346 -0.207808,-9e-6 -0.224357,0.02135 -0.176353,0.227739 0.126928,0.545666 0.402126,0.949325 1.263938,1.85394 1.005581,1.055523 1.523614,1.443276 2.410314,1.804121 0.323972,0.131836 0.832893,0.437826 1.142403,0.686871 0.762555,0.613569 1.036836,0.804838 1.158605,0.807926 0.05694,0.0018 0.103514,-0.0071 0.103506,-0.01808 z m -1.573544,-1.942451 c -0.498387,-0.181353 -1.822015,-1.911952 -1.822015,-2.382217 0,-0.284244 0.253847,-0.13922 1.92554,1.100022 0.854731,0.63363 0.897236,0.796563 0.31284,1.199339 -0.218541,0.150636 -0.226013,0.152118 -0.416365,0.08284 z M 59.15822,86.405329 c -0.136653,-0.01888 -0.695678,-0.142642 -1.242283,-0.275122 -1.422456,-0.344745 -2.271998,-0.432189 -3.189399,-0.328257 -0.417473,0.04729 -0.859916,0.138143 -0.9832,0.2019 -0.837335,0.433 -2.270017,0.493766 -3.680482,0.156114 -0.744923,-0.178328 -1.136012,-0.222808 -2.002372,-0.227749 -0.960218,-0.0053 -1.151985,0.01853 -1.773259,0.221617 -1.178722,0.385371 -2.213652,0.279578 -3.175172,-0.32456 -0.350621,-0.220303 -0.361148,-0.249636 -0.181646,-0.505906 0.169456,-0.241942 0.275613,-0.233076 0.883347,0.07366 0.735804,0.371432 1.24018,0.396654 2.353059,0.117632 1.330552,-0.333585 2.65139,-0.309281 4.51678,0.0831 0.85989,0.180886 1.608109,0.155135 2.362451,-0.08134 1.543718,-0.483851 3.112409,-0.496563 5.076941,-0.0412 1.002306,0.232353 1.212359,0.254761 2.029062,0.216518 0.501055,-0.02347 1.004179,-0.07834 1.118054,-0.122008 0.148148,-0.05681 0.27183,-0.04623 0.4348,0.03705 0.125266,0.06405 0.227753,0.13652 0.227753,0.161116 0,0.490017 -1.441306,0.821097 -2.774434,0.637318 z m 0.496914,-1.525347 c -0.182204,-0.03405 -1.076648,-0.217003 -1.987654,-0.406446 -2.068901,-0.430239 -2.745554,-0.428139 -4.058129,0.01253 -0.759315,0.254938 -0.91084,0.277884 -1.822015,0.275943 -0.765304,-0.0018 -1.174745,-0.04737 -1.780607,-0.199068 -1.117509,-0.279718 -2.671723,-0.288867 -3.575451,-0.021 -1.259626,0.373284 -2.244483,0.308469 -3.130845,-0.20602 -0.460439,-0.26728 -0.506122,-0.332553 -0.398308,-0.569194 0.133471,-0.292925 0.332137,-0.286565 1.030416,0.03291 0.78967,0.361339 1.276256,0.384744 2.181698,0.104946 1.183293,-0.365662 2.509597,-0.364586 4.229481,0.0035 1.195124,0.255714 2.005483,0.245401 2.875969,-0.03661 1.486046,-0.481407 2.552364,-0.492435 4.779065,-0.0494 1.549379,0.308257 2.340562,0.374378 2.857255,0.238766 0.745974,-0.195777 0.970535,-0.196403 1.074029,-0.0035 0.09184,0.171622 0.04911,0.501362 -0.06508,0.502235 -0.03111,0 -0.466485,0.08628 -0.96754,0.191199 -0.638435,0.133697 -1.010135,0.172231 -1.242284,0.128792 z m -1.61497,-1.945829 c -1.651857,-0.342337 -1.84948,-0.36635 -2.733024,-0.332094 -0.761654,0.02955 -1.116862,0.08826 -1.773392,0.293251 -1.076094,0.335994 -1.957013,0.346007 -3.485609,0.03961 -1.622415,-0.325161 -2.506045,-0.29813 -4.140948,0.126657 -0.997809,0.25926 -2.691978,-0.102494 -2.930373,-0.625717 -0.11149,-0.244686 -0.06568,-0.343722 0.206957,-0.44738 0.159319,-0.06061 0.304268,-0.02188 0.70488,0.188102 0.706843,0.370523 1.28043,0.397519 2.309407,0.108714 1.43733,-0.403421 2.466453,-0.369192 4.885312,0.162474 0.749602,0.164759 1.414359,0.09178 2.541706,-0.279066 1.347554,-0.443278 2.268376,-0.416856 4.735312,0.135903 1.531777,0.343228 2.179627,0.378816 2.772752,0.152303 0.222652,-0.08504 0.479141,-0.127928 0.593432,-0.09924 0.227726,0.05717 0.390382,0.298439 0.299895,0.444857 -0.07361,0.119097 -1.607931,0.517454 -1.955348,0.507661 -0.137692,-0.0035 -1.051625,-0.173114 -2.030959,-0.376072 z m 18.08,-3.47077 c -0.233582,-0.116397 -0.44428,-0.262683 -0.468222,-0.325081 -0.164547,-0.428784 1.348671,-2.165373 2.9099,-3.339447 0.732796,-0.551074 1.108522,-0.654353 1.382768,-0.380104 0.211477,0.211481 0.385828,-0.02602 -2.206934,3.006505 -0.562018,0.657344 -1.060312,1.207456 -1.10733,1.222471 -0.04701,0.015 -0.276591,-0.06793 -0.510182,-0.184344 z m 2.306914,-0.0285 c -0.241441,-0.153035 -0.06314,-0.458717 0.471297,-0.807979 1.190267,-0.777843 1.928134,-1.79372 2.594683,-3.572285 0.211603,-0.564598 0.560958,-1.87168 0.513163,-1.919919 -0.02032,-0.02047 -0.283305,0.02841 -0.58442,0.108599 -0.506189,0.134879 -1.107362,0.412674 -2.262811,1.045634 -0.788611,0.432003 -1.159464,0.283512 -1.159464,-0.464222 0,-0.535291 -0.168049,-1.164704 -0.565257,-2.117169 -0.527514,-1.264922 -0.809404,-1.72408 -1.058468,-1.72408 -0.249167,0 -0.497161,0.205367 -1.854669,1.535942 -0.660483,0.647375 -1.289111,1.204086 -1.396958,1.237142 -0.298802,0.09158 -0.498166,-0.170591 -0.633789,-0.833466 -0.150498,-0.735594 -0.659188,-1.720083 -1.308149,-2.531697 -0.281699,-0.352314 -0.532707,-0.642734 -0.557786,-0.645389 -0.02507,-0.0026 -0.131451,0.22811 -0.236365,0.512804 -0.2882,0.782016 -0.32851,1.860573 -0.09361,2.505266 0.271141,0.744178 0.285511,0.891867 0.108088,1.110988 -0.228788,0.282532 -0.460533,0.169664 -0.714182,-0.347825 -0.411395,-0.839341 -0.488922,-1.653971 -0.267522,-2.811115 0.131948,-0.689632 0.550498,-1.82488 0.784146,-2.126883 l 0.154367,-0.199527 0.279565,0.173608 c 0.668646,0.415215 1.682306,1.755116 2.384812,3.152306 0.186871,0.37167 0.35097,0.675764 0.364677,0.675764 0.01371,0 0.10831,-0.112816 0.21025,-0.250695 L 73.784025,70.889982 73.531436,70.6374 c -0.293503,-0.293498 -0.300054,-0.372808 -0.134265,-1.624224 0.06508,-0.491234 0.142298,-1.107458 0.171599,-1.369401 0.0293,-0.261942 0.109155,-0.532142 0.177459,-0.600441 0.130173,-0.130169 0.504306,-0.164768 0.657506,-0.06078 0.22072,0.149789 0.361528,2.024204 0.20332,2.706478 -0.04167,0.179686 -0.05821,0.355094 -0.03677,0.3898 0.02144,0.03467 0.345254,-0.135603 0.719578,-0.378446 0.897161,-0.582012 1.357592,-0.809064 1.577254,-0.777781 0.129646,0.01844 0.261235,0.187776 0.470477,0.605364 0.308741,0.616136 0.379726,0.775814 1.122968,2.525972 0.261143,0.614936 0.505734,1.152706 0.543531,1.195061 0.04197,0.04702 0.141943,0.03899 0.256739,-0.02056 0.286298,-0.148535 2.785167,-0.844598 3.231619,-0.900168 l 0.39339,-0.04896 -0.0019,0.322108 c -9.7e-4,0.177154 -0.07576,0.65752 -0.166158,1.067478 -0.555557,2.51939 -1.74589,4.543267 -3.240108,5.509027 -0.495862,0.320494 -0.8239,0.400712 -1.050709,0.256958 z m -7.818131,-3.489782 c -0.307076,-0.189037 -0.32586,-0.375331 -0.101869,-1.01054 0.341438,-0.968239 0.467772,-1.612914 0.527906,-2.693783 0.06271,-1.126894 0.146516,-1.32807 0.419802,-1.007585 0.261813,0.30704 0.809282,1.483539 0.870814,1.871398 0.04376,0.275757 -0.01577,0.580821 -0.290867,1.490738 -0.190236,0.629228 -0.394251,1.19477 -0.45336,1.25678 -0.13891,0.145712 -0.786225,0.207607 -0.972426,0.09299 z m 4.616143,-0.2648 c -0.136651,-0.04808 -0.29827,-0.126905 -0.359152,-0.175187 -0.150226,-0.119132 -0.08542,-0.541026 0.193009,-1.25648 0.124089,-0.318853 0.331725,-0.946634 0.461411,-1.395082 0.129692,-0.44843 0.279264,-0.867694 0.332386,-0.931707 0.101809,-0.122661 0.550164,-0.156263 0.707067,-0.05302 0.05083,0.03343 0.111042,0.284456 0.133776,0.557761 0.03439,0.413231 -0.01994,0.719097 -0.322538,1.816358 -0.200133,0.725696 -0.404661,1.36858 -0.454493,1.428623 -0.106116,0.127866 -0.344196,0.130865 -0.691466,0.0088 z m 4.120245,-4.038236 c -0.238901,-0.10844 -0.351982,-0.211586 -0.351982,-0.32105 0,-0.37646 0.822416,-1.661726 1.468802,-2.295426 0.447852,-0.43907 1.134171,-0.946969 1.279611,-0.946969 0.167946,0 0.398704,0.266159 0.398704,0.459872 0,0.149656 -1.660617,2.690166 -2.013684,3.080645 -0.204488,0.22616 -0.325882,0.229715 -0.781451,0.02294 z m -2.32617,-3.20649 c -0.257966,-0.127107 -0.273933,-0.158761 -0.239379,-0.474332 0.07032,-0.642284 0.389677,-2.575233 0.476615,-2.884805 0.08076,-0.287579 0.110022,-0.310578 0.395242,-0.310578 0.398693,0 0.484882,0.143163 0.553473,0.919215 0.04057,0.459078 0.0092,0.862216 -0.124875,1.605989 -0.09847,0.546177 -0.214129,1.05862 -0.257021,1.138759 -0.09805,0.183197 -0.438974,0.185641 -0.804055,0.0053 z m 5.444025,-4.07408 c -0.214854,-0.173978 -0.189058,-0.272202 0.218138,-0.830598 0.343526,-0.471067 0.453151,-1.004753 0.451182,-2.196347 -0.0012,-0.766039 -0.04946,-1.29789 -0.164884,-1.820028 -0.0897,-0.40574 -0.182129,-0.75674 -0.205383,-0.780004 -0.144999,-0.144998 -1.187938,0.744011 -1.502476,1.28074 -0.393317,0.671132 -0.782662,0.712966 -1.242102,0.13345 -0.171536,-0.216359 -0.35106,-0.430654 -0.398939,-0.47621 -0.04788,-0.04552 -0.232606,-0.250527 -0.410493,-0.455497 -0.594008,-0.684462 -1.605352,-1.714781 -1.730226,-1.762702 -0.286588,-0.109975 -0.685609,0.764477 -0.974398,2.135387 -0.243702,1.156888 -0.648041,1.295014 -1.262186,0.4312 -0.154508,-0.217303 -0.482264,-0.567756 -0.728358,-0.778769 -0.534522,-0.458346 -1.559094,-1.135777 -1.622257,-1.072612 -0.07337,0.0734 0.302148,1.226124 0.524459,1.60995 0.113221,0.195478 0.371087,0.541449 0.573038,0.768836 0.392721,0.442184 0.420738,0.531022 0.271066,0.859508 -0.130696,0.286864 -0.293377,0.265568 -0.735105,-0.09623 -0.656574,-0.537762 -1.190258,-1.57168 -1.443088,-2.795748 -0.132377,-0.640855 -0.174872,-1.817804 -0.0639,-1.769592 0.03494,0.01517 0.556709,0.28053 1.159466,0.589643 l 1.095926,0.56204 -9.7e-4,-0.354988 c -9.71e-4,-0.195248 -0.056,-0.559966 -0.123244,-0.810493 -0.157338,-0.586159 -0.155995,-0.911619 0.0048,-1.141035 0.437497,-0.624632 1.235316,0.520365 1.289117,1.850084 0.01806,0.446701 0.0039,0.48468 -0.262928,0.702415 l -0.282021,0.230175 0.370937,0.331688 c 0.204018,0.18243 0.3943,0.306873 0.422867,0.276534 0.02855,-0.03035 0.117412,-0.256834 0.197438,-0.503329 0.197119,-0.607146 0.645261,-1.499516 0.912599,-1.817222 0.236988,-0.281651 0.519376,-0.332907 0.843013,-0.153026 0.100625,0.05593 0.804893,0.660228 1.565032,1.342873 0.760135,0.682653 1.431987,1.253136 1.493,1.267745 0.06101,0.01464 0.436307,-0.24159 0.833979,-0.569327 0.899522,-0.741346 1.288479,-0.989385 1.551463,-0.989385 0.183443,0 0.226839,0.06881 0.411147,0.65228 0.319712,1.012057 0.484722,2.037525 0.488083,3.033156 0.0034,1.030487 -0.136932,1.679026 -0.53651,2.477953 -0.414108,0.82797 -0.602049,0.949342 -0.987166,0.637485 z m -2.291947,-0.304287 c -0.24737,-0.173264 -0.238815,-0.516333 0.03322,-1.331687 0.26993,-0.809082 0.374499,-1.018833 0.825646,-1.656142 0.406118,-0.57372 0.670037,-0.700598 1.003219,-0.482289 0.24342,0.159501 0.231378,0.318156 -0.08146,1.073062 -0.113255,0.273305 -0.343839,0.858273 -0.512402,1.299936 -0.428281,1.122148 -0.788096,1.433414 -1.268223,1.09712 z M 74.91491,63.792747 c -0.08852,-0.0996 -0.160165,-0.480383 -0.229069,-1.217521 -0.09965,-1.065987 -0.09914,-1.073503 0.08373,-1.22158 0.422842,-0.34239 0.740479,-0.05355 0.955987,0.86938 0.140438,0.601412 0.163511,1.067768 0.07357,1.486901 -0.04404,0.205225 -0.08382,0.227757 -0.402142,0.227757 -0.232167,0 -0.397424,-0.04967 -0.482073,-0.144937 z m 2.30832,-1.651536 c -0.146357,-0.03926 -0.151806,-0.112781 -0.0962,-1.296576 0.06938,-1.476764 0.129213,-1.658762 0.557097,-1.69442 0.227174,-0.01897 0.324063,0.01261 0.381292,0.124222 0.134017,0.261316 0.360238,2.363974 0.283398,2.634182 -0.06669,0.234532 -0.09587,0.249177 -0.520543,0.261334 -0.24744,0.0071 -0.519713,-0.0062 -0.605042,-0.02876 z m 2.184216,-4.497773 c -0.09715,-0.09715 -0.165967,-0.276922 -0.16644,-0.434791 -9.71e-4,-0.148042 -0.0393,-0.902727 -0.08634,-1.677085 -0.04705,-0.774359 -0.06475,-1.491206 -0.03935,-1.593003 0.05144,-0.206135 0.349411,-0.315571 0.652258,-0.23957 0.182216,0.04579 0.198111,0.09987 0.251874,0.857876 0.03156,0.444981 0.125182,1.219013 0.20805,1.720066 0.168688,1.0199 0.12346,1.326764 -0.214476,1.455247 -0.29843,0.11346 -0.421408,0.09545 -0.605581,-0.08874 z m -3.2058,-2.047891 c -0.400063,-0.717703 -0.709095,-2.136657 -0.553604,-2.541877 0.05297,-0.138002 0.412988,-0.176131 0.591686,-0.06264 0.05699,0.03617 0.366564,0.579445 0.687935,1.207226 0.417886,0.816333 0.577074,1.212149 0.558919,1.389718 -0.02491,0.243751 -0.03531,0.248948 -0.568054,0.284218 l -0.542672,0.0359 z M 68.199507,45.199795 c -0.688102,-0.724338 -1.258448,-1.571098 -1.476925,-2.192695 -0.170484,-0.485059 -0.155494,-0.685265 0.0513,-0.685265 0.09452,0 1.320589,1.003668 1.618656,1.325035 0.02279,0.02453 0.320535,0.286177 0.661698,0.581387 0.973165,0.842075 1.003589,0.919118 0.520302,1.317483 -0.498936,0.411263 -0.704932,0.359434 -1.375028,-0.345945 z"
     id="path1" /></svg>
